<svg width="96" height="28" viewBox="0 0 96 28" fill="none" xmlns="http://www.w3.org/2000/svg">
<g clip-path="url(#clip0_409_3168)">
<path d="M1.49989 6.37384H4.61373V7.61C5.05835 7.11185 5.57758 6.68482 6.15311 6.34394C6.68448 6.09757 7.26697 5.97972 7.85295 6C8.57853 5.98792 9.29456 6.16578 9.92913 6.51574C10.5637 6.8657 11.0945 7.37545 11.4682 7.99381C11.9095 7.35784 12.5031 6.84116 13.1956 6.49045C13.8881 6.13974 14.6576 5.96604 15.4345 5.98505C18.4731 5.98505 19.9908 7.8127 19.9875 11.468V19.7523H16.8586V12.3303C16.8586 11.0443 16.7031 10.1355 16.3922 9.6038C16.2272 9.3358 15.9911 9.11818 15.7098 8.97485C15.4285 8.83152 15.1129 8.76802 14.7977 8.79133C14.4259 8.76597 14.0543 8.84277 13.7236 9.01333C13.3928 9.18389 13.1156 9.44162 12.9224 9.75832C12.5312 10.403 12.3357 11.4348 12.3357 12.8537V19.7772H9.2068V12.3702C9.2068 9.98761 8.51483 8.79133 7.13089 8.79133C6.74972 8.76729 6.36921 8.84749 6.03066 9.02324C5.6921 9.19898 5.40841 9.46355 5.21042 9.78823C4.80928 10.4528 4.60871 11.4813 4.60871 12.8736V19.7971H1.49487L1.49989 6.37384Z" fill="#FF3333"/>
<path d="M32.8892 6.37388H36.0181V19.7772H32.8892V18.3716C32.3143 18.9569 31.6241 19.418 30.8618 19.726C30.0994 20.034 29.2813 20.1824 28.4587 20.1618C27.636 20.1412 26.8265 19.9521 26.0807 19.6064C25.3349 19.2606 24.6689 18.7656 24.1243 18.1523C22.8956 16.7322 22.2478 14.9053 22.3092 13.0332C22.2496 11.1899 22.8986 9.39325 24.1243 8.0088C24.6877 7.36511 25.3869 6.85274 26.1721 6.50814C26.9572 6.16353 27.8092 5.99516 28.6672 6.015C29.4675 6.02569 30.2565 6.20286 30.9837 6.53509C31.7109 6.86733 32.36 7.34727 32.8892 7.944V6.37388ZM25.4932 13.0332C25.4429 14.17 25.814 15.2856 26.5362 16.1684C26.8613 16.5607 27.2716 16.8748 27.7361 17.0872C28.2007 17.2995 28.7076 17.4046 29.2188 17.3946C29.7438 17.4135 30.2665 17.3175 30.75 17.1133C31.2335 16.9092 31.6659 16.6019 32.0168 16.2133C32.7064 15.3213 33.0802 14.2279 33.0802 13.103C33.0802 11.978 32.7064 10.8846 32.0168 9.99264C31.6744 9.60024 31.2483 9.28876 30.7694 9.08094C30.2906 8.87311 29.7711 8.77418 29.2489 8.79137C28.7386 8.78275 28.2328 8.88695 27.768 9.09642C27.3032 9.30589 26.891 9.61541 26.5612 10.0026C25.8413 10.8472 25.4609 11.9266 25.4932 13.0332V13.0332Z" fill="#FF3333"/>
<path d="M41.9099 27.0696H38.791V6.37389H41.9099V7.82937C42.4422 7.25429 43.0875 6.7939 43.8059 6.47668C44.5244 6.15946 45.3007 5.99215 46.0868 5.9851C46.9553 5.96342 47.8177 6.13526 48.6107 6.48803C49.4037 6.84079 50.1073 7.36553 50.6698 8.02376C51.9118 9.4312 52.5664 11.2569 52.5 13.1279C52.5596 14.9712 51.9105 16.7678 50.6848 18.1523C50.1387 18.7701 49.4682 19.267 48.7166 19.6107C47.965 19.9545 47.1491 20.1374 46.3219 20.1478C45.4946 20.1581 44.6744 19.9956 43.9144 19.6707C43.1543 19.3459 42.4714 18.8659 41.9099 18.2619V27.0696ZM49.3159 13.1578C49.3661 12.0178 48.9911 10.8996 48.2629 10.0176C47.9368 9.62517 47.5256 9.31109 47.0603 9.09876C46.5949 8.88644 46.0873 8.78136 45.5753 8.79138C45.0523 8.7743 44.532 8.87172 44.0511 9.07672C43.5702 9.28173 43.1405 9.58931 42.7924 9.97769C42.0552 10.8436 41.6754 11.9549 41.7294 13.088C41.6866 14.2195 42.0651 15.3269 42.7924 16.1984C43.1352 16.5898 43.5616 16.9004 44.0404 17.1073C44.5192 17.3143 45.0384 17.4124 45.5603 17.3946C46.0688 17.406 46.5733 17.303 47.0361 17.0932C47.4989 16.8835 47.908 16.5725 48.2328 16.1834C48.9656 15.3472 49.3526 14.2662 49.3159 13.1578V13.1578Z" fill="#FF3333"/>
<path d="M57.6153 27.0594H54.5015V6.36373H57.6153V7.81921C58.1841 7.22371 58.8721 6.75331 59.635 6.43835C60.3979 6.12339 61.2187 5.97086 62.0445 5.99059C62.8703 6.01031 63.6828 6.20185 64.4296 6.55287C65.1764 6.90389 65.8409 7.40659 66.3802 8.02856C67.6204 9.43674 68.2732 11.2623 68.2054 13.1327C68.2676 14.9764 67.6182 16.7739 66.3902 18.1571C65.8437 18.7742 65.173 19.2704 64.4215 19.6137C63.67 19.957 62.8543 20.1398 62.0273 20.1501C61.2003 20.1604 60.3803 19.9982 59.6203 19.6737C58.8603 19.3493 58.1773 18.87 57.6153 18.2667V27.0594ZM65.0214 13.1476C65.0716 12.0077 64.6966 10.8894 63.9684 10.0074C63.643 9.61575 63.2326 9.30242 62.768 9.09092C62.3034 8.87942 61.7966 8.77525 61.2857 8.7862C60.7631 8.76782 60.2427 8.86414 59.7618 9.06832C59.2808 9.27249 58.8509 9.57951 58.5028 9.96753C57.7638 10.8327 57.3822 11.9441 57.4348 13.0779C57.3915 14.2103 57.772 15.3184 58.5028 16.1882C58.8456 16.5797 59.272 16.8902 59.7508 17.0972C60.2297 17.3041 60.7489 17.4023 61.2707 17.3845C61.7792 17.3955 62.2835 17.2923 62.7463 17.0826C63.209 16.8728 63.6182 16.562 63.9433 16.1732C64.6725 15.3353 65.0575 14.255 65.0214 13.1476V13.1476Z" fill="#FF3333"/>
<path d="M72.9944 6.36389H69.8555V19.7672H72.9944V6.36389Z" fill="#FF3333"/>
<path d="M76.3489 6.36389H79.4678V7.60005C79.9406 7.09781 80.511 6.69617 81.1445 6.41944C81.7779 6.1427 82.4613 5.99663 83.1532 5.99005C83.8352 5.95336 84.517 6.06603 85.1504 6.32012C85.7838 6.57421 86.3533 6.9635 86.8186 7.46048C87.5775 8.29788 87.9569 9.66031 87.9569 11.5478V19.7672H84.828V12.2905C84.828 10.9613 84.6425 10.0474 84.2714 9.54899C83.9104 9.05054 83.2685 8.78137 82.3058 8.78137C81.883 8.73962 81.4567 8.80986 81.0701 8.98496C80.6834 9.16005 80.3503 9.43376 80.1046 9.77827C79.6834 10.4462 79.4678 11.6176 79.4678 13.2674V19.7473H76.3389L76.3489 6.36389Z" fill="#FF3333"/>
<path d="M91.4217 18.222C91.4217 17.7144 91.6246 17.2276 91.9857 16.8686C92.3468 16.5096 92.8365 16.308 93.3472 16.308C93.8578 16.308 94.3476 16.5096 94.7087 16.8686C95.0698 17.2276 95.2727 17.7144 95.2727 18.222C95.2765 18.4764 95.2277 18.7289 95.1294 18.9639C95.0311 19.1988 94.8853 19.4111 94.701 19.5878C94.525 19.7663 94.3141 19.907 94.0812 20.0013C93.8484 20.0956 93.5986 20.1415 93.3472 20.1361C93.0915 20.1416 92.8374 20.0954 92.6003 20.0002C92.3632 19.905 92.148 19.7629 91.9679 19.5824C91.7878 19.402 91.6465 19.187 91.5526 18.9506C91.4587 18.7141 91.4142 18.4612 91.4217 18.2071V18.222Z" fill="#FF3333"/>
<path d="M69.4998 3.36363C69.4998 2.856 69.7027 2.36915 70.0638 2.0102C70.4249 1.65124 70.9146 1.44958 71.4253 1.44958C71.936 1.44958 72.4257 1.65124 72.7868 2.0102C73.1479 2.36915 73.3508 2.856 73.3508 3.36363C73.3546 3.61805 73.3058 3.87053 73.2075 4.10545C73.1092 4.34038 72.9634 4.55274 72.7792 4.72939C72.6031 4.90788 72.3922 5.04861 72.1594 5.14291C71.9265 5.23721 71.6767 5.28308 71.4253 5.27768C71.1696 5.2832 70.9155 5.23696 70.6784 5.14178C70.4413 5.0466 70.2262 4.90447 70.046 4.72403C69.8659 4.54359 69.7246 4.32861 69.6307 4.09217C69.5368 3.85573 69.4923 3.60277 69.4998 3.34868V3.36363Z" fill="#FF3333"/>
</g>
<defs>
<clipPath id="clip0_409_3168">
<rect width="95" height="27" fill="white" transform="translate(0.5 0.5)"/>
</clipPath>
</defs>
</svg>
